<?xml version="1.0" standalone="no"?>
<!DOCTYPE svg PUBLIC "-//W3C//DTD SVG 20010904//EN"
 "http://www.w3.org/TR/2001/REC-SVG-20010904/DTD/svg10.dtd">
<svg version="1.0" xmlns="http://www.w3.org/2000/svg"
 width="300.000000pt" height="300.000000pt" viewBox="0 0 300.000000 300.000000"
 preserveAspectRatio="xMidYMid meet">
<metadata>
Created by potrace 1.10, written by Peter Selinger 2001-2011
</metadata>
<g transform="translate(0.000000,300.000000) scale(0.100000,-0.100000)"
fill="#000000" stroke="none">
<path d="M1395 2439 c-188 -28 -346 -110 -476 -245 -81 -86 -121 -143 -169
-247 -53 -115 -71 -193 -77 -338 -4 -96 -2 -145 12 -210 21 -106 65 -219 110
-286 46 -68 44 -76 -6 -28 l-42 40 6 -75 c4 -41 9 -89 13 -106 8 -39 2 -42
-130 -50 l-104 -7 44 -38 c60 -52 157 -120 227 -159 48 -27 56 -35 45 -47 -15
-18 -10 -22 105 -68 369 -148 786 -136 1140 32 64 31 117 59 117 63 0 3 -6 15
-14 25 -12 17 -9 22 43 55 68 45 112 80 193 155 l61 57 -39 -2 c-21 -2 -76 -2
-122 -1 l-83 1 1 68 c1 37 1 85 0 107 -1 35 -2 38 -14 23 -21 -28 -30 -21 -11
8 55 85 95 254 95 405 0 170 -36 308 -117 452 -82 146 -223 276 -376 348 -125
58 -307 87 -432 68z m281 -69 c248 -64 439 -235 538 -484 44 -109 59 -213 53
-351 -7 -144 -24 -210 -82 -330 -65 -133 -106 -180 -206 -236 -72 -40 -84 -50
-82 -72 1 -22 -8 -29 -75 -60 -96 -44 -144 -55 -268 -63 -179 -12 -370 30
-419 92 -11 14 -50 40 -85 57 -122 60 -247 239 -302 432 -19 67 -23 103 -23
220 1 148 12 210 59 327 77 189 245 360 428 435 140 56 321 69 464 33z m552
-1361 c-2 -40 1 -60 9 -64 7 -2 53 -7 101 -11 l89 -7 -51 -46 c-44 -40 -155
-123 -192 -144 -8 -4 -35 33 -73 98 l-61 104 -45 -20 c-25 -11 -58 -19 -73
-17 -23 3 -15 10 60 52 49 27 121 76 160 109 l73 59 3 -28 c2 -15 2 -53 0 -85z
m-1380 11 c38 -27 115 -74 173 -105 87 -46 99 -55 73 -55 -17 0 -51 7 -74 15
-24 8 -44 14 -45 13 -1 -2 -26 -48 -55 -103 -29 -55 -55 -102 -56 -104 -6 -7
-159 89 -220 138 l-58 46 69 7 c39 4 85 10 103 13 36 7 36 6 23 118 -4 37 -6
67 -4 67 1 0 33 -22 71 -50z m1270 -243 l61 -107 -60 -30 c-303 -154 -647
-190 -984 -104 -114 29 -244 80 -251 99 -3 7 20 63 51 125 41 82 59 109 68
102 20 -16 180 -70 264 -88 94 -21 327 -23 422 -5 84 16 232 66 301 101 30 16
58 25 61 22 4 -4 34 -55 67 -115z"/>
<path d="M1479 2313 c-11 -3 -15 -12 -11 -28 2 -14 1 -37 -3 -52 l-7 -28 -14
39 c-10 29 -11 42 -3 52 9 11 5 14 -20 14 -31 0 -38 -8 -22 -25 5 -6 16 -33
25 -62 21 -62 41 -62 56 1 6 22 15 51 20 64 15 35 15 35 -21 25z"/>
<path d="M1560 2255 c-12 -30 -26 -55 -31 -55 -20 0 -7 -18 16 -22 22 -5 24
-2 19 18 -5 20 -2 24 15 24 23 0 28 -19 9 -38 -9 -9 -8 -12 4 -12 9 0 24 -3
33 -7 14 -5 16 -2 10 18 -4 13 -10 46 -14 74 -9 72 -32 72 -61 0z"/>
<path d="M1293 2283 c-38 -13 -58 -33 -34 -33 12 0 31 -79 23 -98 -4 -12 -1
-14 14 -8 10 4 31 10 47 13 20 4 27 11 27 29 0 29 -16 32 -23 4 -7 -25 -33
-26 -40 -1 -3 13 1 21 14 24 11 3 19 10 19 15 0 6 -8 8 -19 5 -22 -6 -38 14
-23 29 8 8 16 7 27 -2 13 -11 15 -9 15 14 0 14 -1 26 -2 25 -2 0 -22 -7 -45
-16z"/>
<path d="M1753 2224 c-3 -9 2 -32 12 -50 20 -37 16 -50 -11 -40 -9 3 -14 13
-10 21 3 8 1 17 -4 20 -5 3 -12 -5 -16 -17 -12 -39 49 -65 77 -32 11 14 10 21
-4 46 -21 36 -21 48 -2 48 9 0 15 -9 15 -22 0 -21 1 -22 18 -5 16 17 16 19 -2
33 -26 19 -65 18 -73 -2z"/>
<path d="M1147 2212 c-32 -35 -14 -72 35 -72 19 0 28 -5 28 -16 0 -12 -6 -15
-25 -10 -19 5 -25 2 -25 -9 0 -28 30 -29 57 -3 35 35 25 68 -21 68 -39 0 -50
8 -35 27 9 10 15 10 25 2 11 -9 14 -7 14 10 0 27 -30 28 -53 3z"/>
<path d="M1874 2120 c-21 -16 -45 -30 -53 -30 -11 0 -10 -5 4 -20 19 -20 41
-28 30 -10 -9 15 4 30 20 23 15 -5 22 -44 8 -42 -22 4 -25 -3 -8 -15 30 -20
38 -19 41 7 1 13 9 40 18 61 26 63 3 74 -60 26z"/>
<path d="M1003 2105 c-15 -16 -17 -39 -4 -31 13 9 61 -52 61 -77 0 -20 1 -20
25 3 24 23 25 25 7 31 -21 8 -62 60 -62 78 0 15 -12 13 -27 -4z"/>
<path d="M1390 2094 c-144 -31 -284 -135 -358 -265 -122 -214 -82 -499 93
-674 102 -102 228 -155 369 -155 157 1 262 45 373 155 122 122 169 246 161
429 -6 153 -60 271 -172 379 -64 61 -190 123 -276 137 -82 13 -110 12 -190 -6z
m235 -19 c244 -64 413 -309 391 -568 -28 -325 -333 -558 -631 -482 -215 55
-363 217 -401 438 -13 77 -13 97 0 173 38 219 190 390 391 440 70 17 180 17
250 -1z"/>
<path d="M1225 1985 c3 -11 24 -71 46 -134 41 -120 48 -175 25 -219 -32 -62
-96 -94 -229 -112 -39 -6 -73 -12 -75 -14 -2 -3 128 -5 290 -6 161 -1 300 -2
308 -3 8 0 48 3 88 6 46 4 71 3 67 -3 -3 -6 -1 -10 4 -10 6 0 11 4 11 8 0 12
102 2 119 -12 12 -8 13 -8 7 2 -5 9 8 12 56 13 76 1 59 8 -102 38 -99 19 -107
22 -142 60 -34 36 -38 46 -38 95 0 57 26 154 66 245 13 30 22 56 20 58 -2 3
-22 -22 -44 -54 -155 -228 -226 -252 -348 -120 -32 34 -75 89 -97 122 -21 33
-36 51 -32 40z m399 -217 c-54 -106 -135 -248 -143 -248 -3 0 -16 19 -28 43
-84 158 -132 251 -137 262 -2 7 19 -11 47 -40 43 -44 60 -54 98 -60 64 -10
107 11 153 74 21 29 40 50 43 47 2 -2 -12 -37 -33 -78z m-246 -103 c21 -56 15
-107 -16 -124 -28 -15 -89 -24 -96 -13 -3 5 6 22 19 38 32 37 67 130 60 158
-9 34 11 -2 33 -59z m282 -71 c13 -21 29 -42 34 -46 6 -4 -8 -8 -32 -8 -30 0
-41 -4 -36 -12 8 -13 -75 -3 -90 12 -12 12 0 50 25 80 11 14 18 19 14 13 -3
-7 -4 -13 -1 -13 3 0 16 19 28 43 l22 42 6 -36 c4 -20 17 -53 30 -75z m-230
-34 c0 -13 -7 -20 -20 -20 -19 0 -27 20 -13 33 13 14 33 6 33 -13z"/>
<path d="M1445 1895 c-46 -45 -21 -125 40 -125 62 0 89 90 39 129 -34 27 -50
26 -79 -4z m59 -21 c10 -4 16 -18 16 -35 0 -22 -6 -30 -24 -35 -33 -8 -46 2
-46 36 0 34 21 47 54 34z"/>
<path d="M1173 1735 c-40 -28 -37 -89 6 -122 25 -19 50 -15 76 12 30 30 32 64
4 99 -23 29 -54 33 -86 11z m62 -60 c0 -23 -5 -30 -19 -30 -24 0 -41 27 -33
49 4 11 15 16 29 14 18 -2 23 -9 23 -33z"/>
<path d="M1712 1727 c-29 -31 -29 -77 1 -105 46 -44 107 -13 107 53 0 67 -65
98 -108 52z m71 -47 c6 -23 -7 -45 -22 -36 -6 4 -11 1 -11 -6 -1 -8 -6 -6 -15
6 -19 25 -19 31 0 50 19 18 41 12 48 -14z"/>
<path d="M1114 1486 c-11 -7 -31 -16 -45 -19 -50 -13 -45 -64 8 -86 15 -6 100
-24 188 -41 87 -17 170 -38 183 -46 22 -15 23 -17 8 -32 -11 -11 -42 -18 -98
-22 -63 -4 -83 -9 -85 -20 -5 -29 14 -40 84 -46 95 -9 104 -15 74 -54 -32 -44
-22 -60 36 -60 68 0 119 17 156 51 l32 29 -27 21 c-16 11 -28 24 -28 28 0 4
26 14 58 21 31 7 68 17 82 22 l25 10 -24 19 c-13 11 -22 21 -20 24 3 2 38 15
79 27 60 19 75 28 75 43 0 21 -7 22 -73 12 -21 -3 -38 1 -48 10 -8 8 -22 12
-30 9 -11 -4 -15 -2 -11 8 4 10 0 14 -14 13 -10 -1 -19 -4 -19 -7 0 -3 -18 -6
-40 -7 -44 -3 -52 8 -17 25 19 9 17 10 -13 5 -44 -7 -44 -7 -28 -32 22 -36 0
-57 -58 -53 -60 3 -72 13 -51 45 9 14 13 27 10 31 -4 3 -39 6 -80 6 -40 0 -82
5 -92 12 -14 9 -26 9 -43 1 -13 -6 -36 -9 -51 -8 -15 2 -27 -1 -27 -7 0 -6 -7
-5 -16 2 -8 8 -14 9 -13 4 4 -21 -2 -35 -11 -29 -6 4 -7 11 -4 17 5 7 2 8 -6
3 -7 -4 -16 -2 -22 6 -7 10 -8 8 -5 -8 6 -27 -14 -31 -33 -8 -19 22 -6 42 42
62 31 14 38 21 26 25 -8 4 -24 1 -34 -6z m168 -76 c4 -12 38 -18 102 -19 39
-1 47 -4 42 -16 -3 -9 1 -18 9 -21 8 -4 15 -10 15 -16 0 -9 -71 0 -80 11 -3 3
-15 6 -27 7 -79 2 -81 3 -76 27 3 13 1 17 -4 11 -9 -13 -73 -7 -73 7 0 4 17
10 38 12 20 2 40 4 44 5 3 1 8 -2 10 -8z m459 -45 c9 -3 16 -12 16 -20 0 -8
-4 -12 -8 -9 -4 2 -10 -5 -14 -16 -4 -12 -15 -20 -28 -20 -16 0 -18 -3 -9 -12
22 -22 12 -38 -32 -49 -48 -12 -72 -32 -78 -64 -2 -11 -14 -22 -28 -25 -24 -6
-24 -6 8 -13 48 -10 39 -23 -20 -30 -29 -4 -64 -9 -77 -13 -17 -5 -23 -4 -19
7 2 7 20 17 38 22 25 6 30 11 20 17 -9 5 -17 5 -20 -1 -6 -9 -50 34 -50 50 0
5 -5 11 -12 13 -7 3 -6 7 5 11 9 3 17 2 17 -3 0 -6 10 -10 23 -10 22 1 22 1 2
15 -18 15 -18 17 -2 44 12 21 13 31 5 39 -9 9 2 12 47 12 53 0 61 3 87 32 15
17 28 35 28 39 0 6 71 -4 101 -16z m-331 -171 c14 -8 17 -13 7 -10 -10 3 -30
6 -43 6 -14 0 -22 4 -19 10 9 14 26 12 55 -6z"/>
<path d="M2014 2051 c7 -11 -68 -73 -78 -64 -17 17 -3 -14 20 -44 42 -55 114
-36 114 31 0 27 -36 86 -52 86 -5 0 -7 -4 -4 -9z m31 -81 c-8 -25 -38 -42 -59
-34 -25 10 -19 30 16 58 27 21 34 23 41 10 4 -8 5 -23 2 -34z"/>
<path d="M926 2015 c-10 -15 -16 -36 -14 -48 3 -22 16 -25 73 -15 29 4 25 -25
-4 -32 -22 -5 -23 -6 -6 -20 15 -13 19 -12 36 9 37 45 12 95 -37 72 -33 -15
-44 -14 -44 4 0 8 9 15 20 15 23 0 26 13 6 29 -11 9 -17 6 -30 -14z"/>
<path d="M851 1874 c-12 -15 -21 -35 -21 -46 0 -27 44 -68 73 -68 28 0 43 14
52 52 6 22 1 33 -23 58 -37 37 -54 38 -81 4z m74 -34 c21 -23 14 -50 -14 -50
-29 0 -66 34 -58 53 9 23 50 21 72 -3z"/>
<path d="M2068 1873 c-57 -4 -57 -4 -46 -28 6 -14 15 -25 20 -25 5 0 6 5 2 11
-4 7 1 10 12 7 10 -2 20 -12 22 -22 3 -15 0 -18 -17 -13 -24 6 -25 6 -9 -28
12 -27 28 -33 28 -11 0 8 19 30 41 50 35 30 40 38 29 51 -7 8 -15 14 -19 13
-3 -1 -32 -3 -63 -5z"/>
<path d="M790 1719 c0 -16 4 -28 9 -24 5 3 16 -4 24 -16 14 -19 19 -20 50 -10
20 7 38 19 41 28 9 24 0 27 -26 9 -34 -24 -54 -20 -68 14 -16 39 -30 38 -30
-1z"/>
<path d="M2180 1736 c0 -14 -74 -31 -91 -21 -5 4 -9 -5 -9 -19 0 -14 5 -28 10
-31 6 -3 10 1 10 9 0 9 6 16 14 16 8 0 23 3 33 7 12 4 6 -9 -20 -39 -20 -26
-33 -49 -28 -53 5 -3 30 -1 55 5 25 5 51 7 59 4 11 -4 13 1 10 20 -5 26 -18
35 -25 17 -1 -5 -16 -13 -33 -17 l-30 -7 33 35 c31 33 45 88 22 88 -5 0 -10
-6 -10 -14z"/>
<path d="M780 1671 c0 -5 -2 -16 -5 -24 -4 -10 2 -14 22 -15 39 -1 83 -19 84
-34 1 -19 18 24 18 47 1 15 -2 16 -8 7 -7 -11 -16 -11 -50 -1 -22 7 -41 16
-41 21 0 4 -4 8 -10 8 -5 0 -10 -4 -10 -9z"/>
<path d="M825 1530 c-4 -13 -15 -20 -32 -20 -25 0 -26 -1 -8 -20 10 -11 15
-28 12 -40 -6 -21 16 -29 29 -9 4 8 9 8 17 0 18 -18 36 -13 30 9 -3 12 2 29
12 40 18 19 17 20 -8 20 -17 0 -27 5 -27 14 0 24 -18 28 -25 6z"/>
<path d="M2155 1533 c-4 -12 -18 -24 -32 -28 -24 -6 -24 -7 -8 -25 11 -12 14
-26 10 -39 -7 -23 -2 -26 25 -11 13 7 21 7 25 0 12 -19 25 -10 25 18 0 15 5
33 11 39 8 8 6 13 -9 17 -10 4 -24 16 -30 29 l-11 22 -6 -22z"/>
<path d="M1971 1163 c0 -10 6 -33 13 -52 10 -29 14 -32 19 -17 5 11 1 29 -8
43 -15 23 -15 23 4 11 11 -6 17 -16 15 -20 -3 -4 -1 -8 4 -8 9 0 26 31 20 34
-10 6 -60 26 -63 26 -3 0 -5 -8 -4 -17z"/>
<path d="M1013 1143 c4 -6 -2 -18 -13 -28 -11 -10 -17 -22 -14 -27 3 -5 13 -1
21 9 13 17 14 16 8 -10 -4 -20 -2 -28 6 -25 18 6 17 80 0 86 -8 2 -11 0 -8 -5z"/>
<path d="M1922 1118 c-22 -22 -14 -48 14 -48 14 0 23 -4 19 -10 -4 -6 -11 -8
-16 -5 -5 4 -9 2 -9 -4 0 -17 17 -21 30 -6 19 23 8 50 -20 47 -23 -2 -24 -2
-7 12 10 8 14 17 9 20 -5 3 -14 0 -20 -6z"/>
<path d="M1053 1099 c-6 -6 -9 -18 -6 -26 3 -8 1 -18 -6 -22 -9 -6 -8 -11 4
-21 13 -10 15 -9 15 8 0 11 7 27 15 35 12 12 12 17 1 26 -9 7 -16 7 -23 0z"/>
<path d="M1855 1054 c-13 -10 -16 -17 -9 -22 6 -4 16 -17 23 -29 18 -34 -8
-42 -35 -10 -27 32 -34 26 -34 -30 0 -31 4 -43 13 -40 6 2 11 11 9 21 -2 9 2
16 8 16 6 0 8 -4 5 -10 -11 -17 9 -10 39 15 26 21 28 25 15 41 -13 16 -12 16
8 6 14 -8 24 -9 28 -2 3 5 1 10 -5 10 -6 0 -15 11 -20 25 -11 29 -17 30 -45 9z"/>
<path d="M1096 1033 c-23 -19 -26 -27 -15 -33 8 -6 16 -4 21 3 7 11 9 10 12
-12 0 -6 7 -16 14 -22 10 -10 12 -4 12 33 0 26 -3 49 -8 51 -4 3 -20 -6 -36
-20z"/>
<path d="M1172 993 c-1 -16 -7 -30 -12 -31 -12 -4 -3 -22 11 -22 5 0 9 7 9 15
0 9 6 12 15 9 8 -3 13 -15 12 -26 -1 -12 3 -23 9 -25 6 -2 11 9 12 24 0 16 2
35 4 42 2 7 -3 16 -10 18 -8 3 -10 -1 -6 -11 4 -11 1 -16 -11 -16 -11 0 -15 7
-13 22 2 11 -2 23 -7 25 -6 2 -12 -9 -13 -24z"/>
<path d="M1749 983 c-1 -5 -1 -16 0 -25 1 -10 -3 -18 -8 -18 -6 0 -11 7 -11
15 0 8 -4 15 -8 15 -18 0 -19 -12 -5 -40 8 -17 11 -35 7 -41 -4 -7 -1 -10 7
-7 8 3 13 15 11 28 -3 15 1 21 10 17 7 -2 12 -10 10 -17 -1 -6 3 -10 10 -7 7
2 11 11 9 18 -2 8 -6 26 -9 42 -4 24 -20 38 -23 20z"/>
<path d="M1260 945 c0 -21 -5 -35 -12 -35 -9 0 -8 -4 2 -10 21 -14 26 -12 26
8 0 9 4 27 7 38 5 15 3 23 -8 28 -12 4 -15 -2 -15 -29z"/>
<path d="M1307 943 c-3 -5 -4 -21 -3 -38 1 -23 6 -31 23 -33 19 -3 22 1 21 37
0 33 -4 41 -19 41 -10 0 -20 -3 -22 -7z"/>
<path d="M1655 938 c-11 -37 -11 -78 1 -78 8 0 11 6 8 15 -4 8 -1 15 4 15 6 0
12 -7 14 -15 2 -9 8 -12 16 -6 10 6 9 16 -8 44 -24 40 -29 43 -35 25z"/>
<path d="M1376 898 c1 -23 7 -44 13 -46 7 -2 11 3 9 11 -2 9 2 16 7 16 6 0 9
-6 9 -14 -1 -8 5 -16 12 -19 11 -4 14 5 14 39 0 33 -4 45 -15 45 -9 0 -12 -6
-9 -15 4 -9 0 -15 -9 -15 -10 0 -13 7 -10 20 3 13 0 20 -8 20 -10 0 -14 -13
-13 -42z"/>
<path d="M1465 885 c0 -37 3 -45 18 -45 10 0 15 5 12 11 -4 6 -7 26 -7 45 0
19 -5 34 -12 34 -7 0 -11 -17 -11 -45z"/>
<path d="M1574 915 c-7 -18 3 -35 22 -35 8 0 14 -5 14 -11 0 -6 -7 -9 -15 -5
-8 3 -15 1 -15 -4 0 -14 37 -12 46 2 4 6 -2 19 -14 29 -25 20 -29 31 -7 23 8
-4 15 -1 15 5 0 16 -40 13 -46 -4z"/>
<path d="M2165 1048 c-27 -22 -74 -54 -103 -70 -29 -17 -50 -33 -47 -36 3 -3
11 0 17 6 7 7 15 12 20 12 4 0 33 -43 64 -95 31 -53 61 -98 66 -101 8 -5 102
58 168 114 l35 30 -47 6 c-27 3 -68 9 -93 12 l-44 5 5 47 c2 26 7 62 9 80 2
17 3 32 2 32 -1 -1 -24 -19 -52 -42z m7 -77 c-6 -37 24 -70 68 -77 22 -4 40
-12 40 -18 -1 -15 -78 -69 -89 -61 -15 9 -81 121 -81 138 0 16 39 47 55 43 6
-2 9 -13 7 -25z"/>
<path d="M806 959 c7 -40 11 -75 9 -79 -3 -4 -43 -14 -90 -21 -46 -6 -82 -16
-79 -20 8 -14 186 -129 199 -129 6 0 34 45 64 100 29 55 57 100 62 100 6 0 24
-7 40 -16 17 -8 33 -14 35 -11 3 2 -21 15 -53 29 -32 14 -88 46 -126 72 -37
25 -69 46 -71 46 -2 0 2 -32 10 -71z m101 -41 c9 -8 4 -27 -23 -79 -19 -39
-41 -72 -49 -75 -17 -7 -80 30 -88 50 -4 10 5 16 27 20 44 8 78 41 76 74 -1
15 -2 31 -1 35 1 8 35 -7 58 -25z"/>
<path d="M2000 855 c-53 -30 -179 -74 -274 -94 -193 -42 -453 -23 -634 45 -37
14 -74 27 -82 30 -11 3 -28 -24 -60 -92 -25 -53 -46 -99 -48 -103 -3 -8 102
-49 198 -79 251 -77 595 -68 850 23 25 8 80 32 122 52 l77 36 -52 98 c-29 54
-56 99 -62 98 -5 0 -21 -6 -35 -14z m66 -99 c18 -33 30 -64 27 -68 -5 -10 -94
-51 -155 -74 -32 -11 -38 -11 -38 1 0 8 5 17 10 20 20 12 10 55 -21 90 l-31
35 38 15 c22 9 53 22 69 30 49 23 65 15 101 -49z m-995 23 c51 -18 53 -23 24
-74 l-28 -46 22 -30 c26 -36 17 -37 -66 -7 -73 26 -74 31 -37 112 27 60 32 62
85 45z m134 -29 c4 -6 1 -18 -6 -26 -18 -22 -5 -27 40 -13 29 9 47 9 63 2 21
-10 20 -11 -20 -22 -47 -13 -48 -20 -15 -83 15 -31 14 -32 -21 -18 -16 6 -28
21 -34 42 -10 40 -39 49 -61 19 -15 -19 -19 -20 -35 -8 -19 14 -18 17 24 66
44 52 54 59 65 41z m635 -20 c0 -11 -28 -20 -43 -14 -7 2 -21 -3 -32 -11 -19
-15 -16 -15 41 -10 49 5 63 3 74 -10 20 -24 3 -46 -53 -69 -38 -16 -51 -17
-72 -8 -35 16 -21 35 20 28 24 -5 38 -1 56 14 l24 20 -60 -6 c-49 -5 -63 -3
-74 10 -12 14 -11 19 4 36 29 32 115 46 115 20z m-432 -26 c16 -5 19 -10 13
-18 -5 -6 -12 -24 -15 -40 -7 -37 -10 -40 -36 -26 -16 9 -29 9 -45 2 -37 -17
-39 13 -4 53 31 35 45 40 87 29z m276 -18 c3 -13 9 -31 12 -40 5 -12 0 -16
-18 -16 -13 0 -29 -5 -36 -12 -9 -9 -15 -9 -24 0 -14 14 -37 80 -30 87 3 3 24
5 48 5 36 0 43 -3 48 -24z m-117 -16 c2 0 3 -7 3 -15 0 -17 -25 -20 -35 -5 -8
13 -55 13 -55 0 0 -5 11 -12 25 -15 14 -3 36 -7 49 -10 34 -7 42 -36 16 -57
-28 -22 -98 -24 -128 -2 -29 20 -28 34 3 34 14 0 25 -4 25 -10 0 -5 16 -10 35
-10 42 0 47 17 8 26 -52 10 -73 23 -73 43 0 26 52 41 95 29 16 -4 31 -8 32 -8z
m-380 -75 c3 -9 3 -18 0 -21 -9 -9 -48 16 -42 27 9 14 35 11 42 -6z m181 -19
c3 -15 0 -17 -20 -11 -30 10 -31 11 -23 25 10 17 39 8 43 -14z m330 7 c2 -8
-6 -13 -22 -13 -17 0 -26 5 -26 16 0 19 41 16 48 -3z"/>
</g>
</svg>
